<?xml version="1.0" encoding="UTF-8" standalone="no"?>
<!-- Created with Inkscape (http://www.inkscape.org/) -->

<svg
   width="154.64876mm"
   height="159.09024mm"
   viewBox="0 0 154.64876 159.09023"
   version="1.1"
   id="svg5"
   xml:space="preserve"
   inkscape:version="1.2.2 (b0a8486541, 2022-12-01)"
   sodipodi:docname="ADMC_icon.svg"
   inkscape:export-filename="ADMC_icon.png"
   inkscape:export-xdpi="96"
   inkscape:export-ydpi="96"
   xmlns:inkscape="http://www.inkscape.org/namespaces/inkscape"
   xmlns:sodipodi="http://sodipodi.sourceforge.net/DTD/sodipodi-0.dtd"
   xmlns:xlink="http://www.w3.org/1999/xlink"
   xmlns="http://www.w3.org/2000/svg"
   xmlns:svg="http://www.w3.org/2000/svg"><sodipodi:namedview
     id="namedview7"
     pagecolor="#ffffff"
     bordercolor="#000000"
     borderopacity="0.25"
     inkscape:showpageshadow="2"
     inkscape:pageopacity="0.0"
     inkscape:pagecheckerboard="0"
     inkscape:deskcolor="#d1d1d1"
     inkscape:document-units="mm"
     showgrid="false"
     inkscape:zoom="0.58208506"
     inkscape:cx="97.923833"
     inkscape:cy="276.59188"
     inkscape:window-width="1920"
     inkscape:window-height="967"
     inkscape:window-x="0"
     inkscape:window-y="0"
     inkscape:window-maximized="1"
     inkscape:current-layer="layer1" /><defs
     id="defs2"><linearGradient
       inkscape:collect="always"
       id="linearGradient7173"><stop
         style="stop-color:#f3f3f8;stop-opacity:1;"
         offset="0"
         id="stop7169" /><stop
         style="stop-color:#d4dfff;stop-opacity:1;"
         offset="1"
         id="stop7171" /></linearGradient><rect
       x="336.56619"
       y="361.15811"
       width="611.50922"
       height="395.34213"
       id="rect7001" /><linearGradient
       inkscape:collect="always"
       id="linearGradient6171"><stop
         style="stop-color:#0060d8;stop-opacity:1;"
         offset="0"
         id="stop6167" /><stop
         style="stop-color:#459cff;stop-opacity:1;"
         offset="1"
         id="stop6169" /></linearGradient><linearGradient
       inkscape:collect="always"
       id="linearGradient3207"><stop
         style="stop-color:#000000;stop-opacity:1;"
         offset="0"
         id="stop3203" /><stop
         style="stop-color:#3e4dc0;stop-opacity:1;"
         offset="0.99850768"
         id="stop3205" /></linearGradient><linearGradient
       inkscape:collect="always"
       id="linearGradient3201"><stop
         style="stop-color:#000000;stop-opacity:1;"
         offset="0"
         id="stop3197" /><stop
         style="stop-color:#e7e7df;stop-opacity:1;"
         offset="0.92931426"
         id="stop3199" /></linearGradient><linearGradient
       inkscape:collect="always"
       id="linearGradient2425"><stop
         style="stop-color:#000000;stop-opacity:0.62193477;"
         offset="0.17434947"
         id="stop2421" /><stop
         style="stop-color:#000000;stop-opacity:0.26821163;"
         offset="1"
         id="stop2423" /></linearGradient><inkscape:perspective
       sodipodi:type="inkscape:persp3d"
       inkscape:vp_x="299.41611 : 25.788287 : 1"
       inkscape:vp_y="0 : 999.99991 : 0"
       inkscape:vp_z="-9.8907288 : -59.037733 : 1"
       inkscape:persp3d-origin="105 : 28.861736 : 1"
       id="perspective1459" /><clipPath
       clipPathUnits="userSpaceOnUse"
       id="clipPath663"><circle
         style="fill:#00ffff;stroke-width:0.264583"
         id="circle665"
         cx="95.244469"
         cy="228.67024"
         r="73.329956" /></clipPath><clipPath
       clipPathUnits="userSpaceOnUse"
       id="clipPath1684"><rect
         style="fill:#800080;stroke-width:0.264583"
         id="rect1686"
         width="168.27089"
         height="127.13416"
         x="18.635368"
         y="13.911344" /></clipPath><radialGradient
       inkscape:collect="always"
       xlink:href="#linearGradient2425"
       id="radialGradient2427"
       cx="88.717628"
       cy="83.713219"
       fx="88.717628"
       fy="83.713219"
       r="93.319901"
       gradientTransform="matrix(0.61646823,0.73646172,-0.71142517,0.56452723,109.59908,6.1144746)"
       gradientUnits="userSpaceOnUse" /><linearGradient
       inkscape:collect="always"
       xlink:href="#linearGradient3201"
       id="linearGradient2443"
       x1="145.33943"
       y1="311.29593"
       x2="90.871986"
       y2="182.59802"
       gradientUnits="userSpaceOnUse" /><linearGradient
       inkscape:collect="always"
       xlink:href="#linearGradient3207"
       id="linearGradient3209"
       x1="156.01469"
       y1="157.15582"
       x2="26.845324"
       y2="-14.040936"
       gradientUnits="userSpaceOnUse" /><linearGradient
       inkscape:collect="always"
       xlink:href="#linearGradient6171"
       id="linearGradient6173"
       x1="106.94722"
       y1="245.96599"
       x2="105.2648"
       y2="-31.091171"
       gradientUnits="userSpaceOnUse"
       gradientTransform="matrix(0.89007089,0,0,0.89007089,11.0945,17.038433)" /><linearGradient
       inkscape:collect="always"
       xlink:href="#linearGradient7173"
       id="linearGradient7175"
       x1="89.527885"
       y1="97.067848"
       x2="118.69823"
       y2="97.067848"
       gradientUnits="userSpaceOnUse"
       gradientTransform="matrix(1.4041265,0,-1.8628756e-8,1.4041266,-33.16485,-111.98473)" /><mask
       maskUnits="userSpaceOnUse"
       id="mask7930"><circle
         style="fill:url(#linearGradient7934);fill-opacity:1;stroke-width:0.235498"
         id="circle7932"
         cx="103.89217"
         cy="123.9112"
         r="77.274109" /></mask><linearGradient
       inkscape:collect="always"
       xlink:href="#linearGradient6171"
       id="linearGradient7934"
       gradientUnits="userSpaceOnUse"
       gradientTransform="matrix(0.8900709,0,0,0.8900709,11.0945,17.038433)"
       x1="106.94722"
       y1="245.96599"
       x2="105.2648"
       y2="-31.091171" /><clipPath
       clipPathUnits="userSpaceOnUse"
       id="clipPath8125"><rect
         style="fill:#ffffff;fill-opacity:1;stroke-width:1.8;stroke-dasharray:none;paint-order:markers fill stroke"
         id="rect8127"
         width="142.33684"
         height="112.08813"
         x="32.956699"
         y="23.819521" /></clipPath></defs><g
     inkscape:label="Слой 1"
     inkscape:groupmode="layer"
     id="layer1"
     style="display:inline"
     transform="translate(-26.618065,-46.637093)"><circle
       style="display:inline;fill:#0049a3;fill-opacity:1;stroke-width:0.235498"
       id="circle8171-9"
       cx="103.99271"
       cy="128.45322"
       r="77.274109" /><circle
       style="display:inline;fill:url(#linearGradient6173);fill-opacity:1;stroke-width:0.235498"
       id="circle8171"
       cx="103.89217"
       cy="123.9112"
       r="77.274109" /><path
       style="display:inline;fill:url(#radialGradient2427);fill-opacity:1;stroke-width:0.268192"
       d="m 36.510165,146.29875 67.372595,-44.4254 65.53486,19.54515 58.85891,64.71208 -101.88619,54.71405 z"
       id="path2410"
       sodipodi:nodetypes="cccccc"
       mask="url(#mask7930)" /></g><g
     id="g1747"
     style="display:inline"
     transform="translate(-27.191851,-123.21052)"><path
       style="display:inline;fill:url(#linearGradient2443);fill-opacity:1;stroke-width:0.264583"
       d="m 41.724231,193.02976 55.276866,-36.87337 55.731723,7.37719 -0.78106,9.31793 2.08823,7.55306 13.63305,1.85989 -2.43113,9.57467 1.97564,6.62119 -56.78744,44.47279 -71.425166,-19.40274 -1.210131,-5.89752 c 2.953307,-10.46 1.494388,-13.97822 1.082472,-19.14369"
       id="path2257"
       sodipodi:nodetypes="cccccccccccc" /><path
       style="display:inline;fill:url(#linearGradient3209);fill-opacity:1;stroke-width:0.264583"
       d="m -264.09115,379.03922 c -1.21761,-0.74046 -3.00679,-2.90581 -3.83551,-4.6419 -2.21678,-4.64397 -1.98143,-10.55788 0.61933,-15.56279 l 0.79423,-1.52842 -0.66065,-0.9983 c -2.09524,-3.16611 -2.92597,-5.93725 -2.90883,-9.7032 0.009,-1.91931 0.16252,-3.11806 0.56004,-4.36562 0.58476,-1.83515 2.07428,-4.52448 3.02926,-5.46928 0.31936,-0.31594 4.02354,-1.95305 8.2315,-3.638 4.20797,-1.68492 7.68574,-3.0984 7.72838,-3.14103 0.0426,-0.0427 -0.17772,-0.84632 -0.48968,-1.78596 -0.46528,-1.40142 -0.56857,-2.35032 -0.57479,-5.28032 -0.007,-3.23223 0.0623,-3.77314 0.72748,-5.68854 1.17756,-3.39087 3.2226,-6.50356 4.63661,-7.05726 0.38174,-0.14946 10.21908,-3.5043 21.86075,-7.45519 l 21.16666,-7.18338 h 23.68021 23.68021 l 0.0817,0.57343 c 0.0586,0.41124 -0.12849,0.67382 -0.66146,0.9284 -2.32612,1.11106 -3.90777,8.21452 -2.96857,13.33238 0.46736,2.54677 1.20186,3.99785 2.11615,4.18071 0.482,0.0964 0.89196,0.40851 1.08072,0.8228 l 0.30413,0.66749 h 7.1747 c 6.06545,0 7.26562,0.0637 7.76274,0.41187 0.83994,0.58833 0.73279,1.5021 -0.35344,3.01403 -2.58296,3.59529 -3.26015,10.75923 -1.37572,14.55351 l 0.59741,1.20288 5.18946,0.0716 c 4.75404,0.0656 5.22857,0.11483 5.65547,0.58653 0.67789,0.74906 0.59018,1.85661 -0.19817,2.50216 -0.80066,0.65562 -1.56682,2.12665 -2.21666,4.25599 -0.36613,1.19972 -0.47784,2.40662 -0.46453,5.01911 0.0151,2.95762 0.107,3.68057 0.65618,5.15938 0.51732,1.39303 0.79715,1.78959 1.4728,2.08719 0.45878,0.20209 0.96665,0.65826 1.12861,1.0137 0.6825,1.49794 0.87911,1.37456 -20.35263,12.76948 l -19.9747,10.72025 -46.05773,0.0515 c -43.95369,0.0491 -46.09354,0.0297 -46.84164,-0.42524 z m 90.05812,-3.26662 c 0.038,-0.10925 -0.0971,-0.59659 -0.30031,-1.08294 -1.59894,-3.82681 -1.61155,-11.30271 -0.0255,-15.09874 0.21389,-0.51192 0.3889,-0.99412 0.3889,-1.07157 1e-5,-0.0774 -19.98629,-0.14078 -44.414,-0.14078 h -44.41402 l -0.6844,0.99219 c -2.00166,2.90184 -2.87391,6.6113 -2.34881,9.98886 0.33858,2.17784 1.42192,4.60124 2.60807,5.83412 l 0.75005,0.77962 h 44.18541 c 24.30198,0 44.21655,-0.0904 44.25459,-0.19971 z m 14.46248,-6.65899 c 20.90683,-11.14305 24.62678,-13.14381 24.84764,-13.36418 0.12152,-0.12126 0.0137,-0.62111 -0.23965,-1.11077 -1.59516,-3.08324 -1.83475,-9.44002 -0.49854,-13.22724 0.20679,-0.5861 0.27808,-1.02661 0.15844,-0.97893 -0.11965,0.0477 -8.31846,4.13483 -18.21959,9.08254 l -18.00205,8.99583 -0.561,1.23889 c -0.90072,1.98905 -1.37132,4.53654 -1.37737,7.4559 -0.009,4.31583 1.04132,7.84167 2.3358,7.84167 0.23286,0 5.4332,-2.67018 11.55632,-5.93371 z m -27.36394,-14.31525 c 0,-0.0774 -0.25175,-0.88104 -0.55945,-1.78594 -1.17574,-3.45781 -0.90636,-9.24279 0.59908,-12.86528 0.3109,-0.74811 0.51846,-1.40489 0.46126,-1.45952 -0.0572,-0.0546 -17.48714,0.008 -38.73318,0.13856 l -38.62917,0.23789 -0.5015,0.59526 c -0.27583,0.32742 -0.86802,1.36919 -1.31597,2.31507 -0.70362,1.48574 -0.82801,2.07987 -0.91395,4.36563 -0.11301,3.00529 0.40981,5.07624 1.85354,7.34219 l 0.80075,1.25677 h 38.4693 c 21.15811,0 38.46929,-0.0633 38.46929,-0.14063 z m 23.078,-9.38935 c 10.5086,-5.09598 19.20504,-9.36389 19.32542,-9.48428 0.12039,-0.12038 -0.0126,-0.80608 -0.29547,-1.52379 -1.45474,-3.69072 -1.3005,-9.78164 0.34562,-13.64813 0.2093,-0.4916 0.66609,-0.69781 -23.27128,10.50507 -8.00364,3.74578 -14.8753,6.92563 -15.27034,7.06633 -0.93406,0.33274 -2.13881,2.71344 -2.73955,5.41364 -1.00967,4.53829 0.25791,10.93655 2.16668,10.93655 0.34782,0 9.23033,-4.16943 19.73892,-9.26539 z m -36.57175,-13.5891 c 0,-0.0552 -0.29262,-0.73978 -0.65026,-1.52136 -1.16466,-2.54516 -1.56707,-4.60965 -1.5405,-7.90331 0.0286,-3.54539 0.61926,-6.17146 1.97239,-8.76922 0.48182,-0.92501 0.91871,-1.77755 0.97088,-1.89452 0.13762,-0.30864 -42.23832,0.0698 -43.27805,0.38647 -1.97418,0.60132 -4.27948,4.34848 -5.03524,8.1846 -0.73402,3.72578 0.17656,8.13821 2.16509,10.49139 l 0.72513,0.85812 18.43267,0.0697 c 10.13798,0.0384 20.18885,0.0987 22.33529,0.13409 2.14643,0.0354 3.9026,0.019 3.9026,-0.036 z m 19.51923,-7.34836 c 8.98249,-3.95126 17.34384,-7.63113 18.58077,-8.17752 1.23693,-0.5464 2.22339,-1.09379 2.19214,-1.21643 -0.0312,-0.12263 -0.38617,-1.11596 -0.78871,-2.20736 -0.6843,-1.85537 -0.73143,-2.25102 -0.72481,-6.08542 0.006,-3.72763 0.0712,-4.29273 0.71186,-6.20636 0.38764,-1.15792 0.67984,-2.12291 0.64934,-2.14442 -0.0305,-0.0214 -2.2581,0.76872 -4.95024,1.75607 -6.76186,2.47991 -25.74551,9.3777 -29.01994,10.54452 -3.05244,1.08773 -3.34707,1.35829 -4.69574,4.31231 -1.2574,2.75407 -1.59504,4.42455 -1.56547,7.74517 0.0211,2.37567 0.15423,3.30713 0.72424,5.06958 0.61164,1.89113 1.81037,3.79396 2.3901,3.79396 0.0906,0 7.51395,-3.23283 16.49646,-7.1841 z m 298.50995,12.47577 V 294.3494 h 3.175 3.175 v 42.59792 42.59792 h -3.175 -3.175 z m -18.927506,28.1187 c -9.173182,-6.8068 -19.197293,-14.24244 -22.275799,-16.52363 -4.529747,-3.35661 -5.713704,-4.36583 -6.207919,-5.29166 l -0.610659,-1.14403 -0.06985,-36.19842 -0.06985,-36.19844 0.777108,-0.77708 c 1.003141,-1.00316 1.83306,-0.99195 3.652996,0.0493 l 1.444414,0.8264 0.836745,-0.61965 c 6.123278,-4.53451 14.831775,-7.80426 25.60408,-9.61344 6.824,-1.14607 9.65671,-1.342 19.28582,-1.33394 11.52242,0.01 17.44435,0.67253 26.32604,2.94686 7.74909,1.98432 13.52272,4.56901 17.99905,8.05767 l 1.59488,1.24299 1.05095,-0.63612 c 1.4219,-0.86066 2.36426,-0.82145 3.32401,0.13833 l 0.77714,0.77713 -0.0699,35.66922 -0.0699,35.6692 -0.7161,1.21808 c -0.60274,1.02532 -2.46642,2.51521 -11.77396,9.41263 -6.08181,4.50697 -15.97518,11.84672 -21.98525,16.31054 -6.01006,4.46383 -11.04215,8.11604 -11.18237,8.11604 -0.27747,0 -0.28504,-75.85012 -0.008,-80.64442 l 0.1574,-2.7246 17.85936,-10.2915 c 9.82266,-5.66033 18.44559,-10.6403 19.16208,-11.06662 l 1.30268,-0.7751 -1.62804,-1.1985 c -3.71649,-2.73593 -9.90145,-5.37494 -16.57051,-7.07039 -20.90911,-5.31559 -47.684156,-3.53607 -63.384955,4.2127 -2.45356,1.21089 -5.55625,3.14092 -5.55625,3.45628 0,0.10903 8.30461,5.17025 18.454689,11.2472 10.150086,6.07695 18.663426,11.24595 18.918536,11.4867 0.43881,0.4141 0.46024,2.68359 0.39687,42.042 l -0.067,41.6043 -16.678546,-12.37602 z m -182.448869,11.18529 c -2.91554,-0.80402 -5.79875,-3.07459 -7.21239,-5.67987 -1.26048,-2.32301 -1.48383,-3.66382 -1.48727,-8.92815 -0.003,-5.22232 0.28182,-6.79336 1.66052,-9.14593 0.84055,-1.43428 3.19669,-3.67758 4.63127,-4.40944 2.7626,-1.40938 -0.51977,-1.34289 66.49594,-1.3471 l 62.075271,-0.004 0.697124,0.54838 c 1.484736,1.16789 0.530966,3.68495 -1.396338,3.68495 -2.849087,0 -4.931357,6.30447 -4.253177,12.87746 0.297841,2.88682 1.050898,5.93151 1.858618,7.51483 0.506598,0.993 0.586767,1.03896 1.81192,1.03896 1.747996,0 2.676128,0.72478 2.676128,2.08976 0,0.69588 -0.183224,1.16515 -0.612378,1.56829 l -0.612352,0.57529 -62.556916,-0.0236 c -49.71252,-0.0188 -62.8072,-0.0927 -63.77597,-0.35986 z m 120.805634,-4.31284 c -2.121667,-5.06318 -2.596065,-12.67077 -1.085109,-17.40117 0.372692,-1.16684 0.855954,-2.35747 1.073944,-2.64584 0.217964,-0.28839 0.400103,-0.61468 0.404733,-0.72509 0.0045,-0.11041 -26.631823,-0.16994 -59.192112,-0.13229 l -59.20052,0.0685 -1.51524,0.74409 c -1.85223,0.90953 -3.61498,2.84712 -4.3206,4.74916 -0.72048,1.94204 -0.74295,8.1385 -0.0369,10.16228 0.79179,2.26943 2.99093,4.40131 5.44468,5.27814 0.77137,0.27565 12.37809,0.3443 59.78914,0.35367 55.930513,0.0111 58.822382,-0.0111 58.637941,-0.4514 z M -73.031365,360.89206 v -6.74688 l 5.62302,3e-5 5.62303,3e-5 -0.039,6.74687 c -0.0214,3.71078 -0.10899,6.74688 -0.19455,6.74688 -0.0856,0 -1.35036,-1.19073 -2.81066,-2.64605 l -2.65509,-2.64607 -2.63613,2.64607 c -1.44987,1.45532 -2.69789,2.64602 -2.77338,2.64602 -0.0755,-3e-5 -0.13726,-3.03612 -0.13726,-6.7469 z m 43.12709,-49.05917 c -9.50828,-3.37511 -48.08814,-17.10217 -55.15676,-19.62529 -9.60514,-3.42849 -9.97656,-3.62802 -10.73692,-5.76768 -0.570336,-1.60493 -0.796483,-5.63033 -0.415986,-7.40455 0.430036,-2.00522 1.343596,-4.00055 1.831646,-4.00055 0.22661,0 7.38547,2.198 15.90856,4.88445 8.5231,2.68644 22.4617,7.07953 30.97466,9.76246 10.73584,3.38344 15.61045,4.80751 15.91004,4.64791 0.5802,-0.30914 0.81317,-0.98827 0.51916,-1.5136 -0.15814,-0.2826 -5.79342,-2.1753 -16.46941,-5.53151 -8.92597,-2.80609 -16.944,-5.33062 -17.81784,-5.6101 -0.87385,-0.27947 -7.54195,-2.37355 -14.81799,-4.65351 -12.07638,-3.78415 -13.30108,-4.22061 -14.05448,-5.00849 -2.490903,-2.60498 -2.960963,-9.86028 -0.9005,-13.89913 0.4818,-0.94442 0.59227,-1.0163 1.25926,-0.81948 2.1812,0.64364 34.49998,10.37458 45.04885,13.56387 16.18348,4.8928 16.23952,4.90773 16.77217,4.46569 0.51848,-0.43032 0.55163,-1.17761 0.07,-1.57737 -0.37983,-0.31522 -1.01642,-0.51059 -34.04007,-10.44739 -11.85995,-3.56864 -22.93075,-6.9031 -24.60179,-7.40991 -2.64578,-0.80244 -3.16446,-1.05678 -4.01539,-1.96902 -1.169156,-1.25341 -1.809906,-3.19184 -1.809906,-5.47549 0,-1.49591 0.50349,-3.791 0.998186,-4.55013 0.21755,-0.33383 0.049,-0.38168 42.07507,11.94605 11.24827,3.29951 20.71374,5.96179 21.03439,5.91618 0.474,-0.0674 0.58298,-0.25594 0.58298,-1.00829 v -0.92536 l -10.05417,-2.95537 c -5.52979,-1.62545 -19.369,-5.67388 -30.75381,-8.99652 -11.38481,-3.32263 -20.69925,-6.10068 -20.69876,-6.17344 5.3e-4,-0.0728 6.63643,-2.43494 14.74653,-5.24928 8.11009,-2.81435 17.12688,-5.95038 20.03729,-6.96897 15.17545,-5.31109 16.60425,-5.77341 17.84276,-5.77341 0.68885,0 7.55259,1.43325 15.25276,3.18501 7.70017,1.75176 20.8464093,4.73963 29.2138593,6.63972 8.3674507,1.9001 15.3577707,3.57322 15.5340307,3.71805 0.92956,0.7638 0.58706,2.05649 -0.6844,2.58315 -1.16041,0.48065 -1.95955,2.50709 -1.98786,5.04073 -0.0269,2.4019 0.3493,3.56361 1.71209,5.28766 1.32802,1.6801 1.35919,2.59461 0.14652,4.30026 -1.25655,1.76736 -1.85189,4.03957 -1.85528,7.08083 -0.003,3.00096 0.50615,4.92784 1.81867,6.8783 1.20144,1.78532 1.19949,2.66152 -0.01,4.36239 -1.28855,1.81235 -1.82018,3.74089 -1.8246,6.61869 -0.005,3.14248 0.60278,5.06227 1.99874,6.31547 1.06175,0.95316 1.15526,1.14287 0.82177,1.66716 -0.10837,0.17034 -6.74428,4.02482 -14.7464707,8.56552 -8.00221,4.5407 -17.5824293,9.9822 -21.2893993,12.0922 -3.70698,2.11 -7.20453,4.00029 -7.77233,4.2006 -1.55456,0.54848 -3.24834,0.42484 -5.59607,-0.40851 z m 12.78705,-7.6063 c 23.5733393,-13.13915 32.46556,-18.1248 32.65408,-18.30834 0.10856,-0.10568 -0.0609,-0.90104 -0.3765,-1.76747 -0.46988,-1.28987 -0.57357,-2.15067 -0.57224,-4.75033 0.003,-2.98614 0.17084,-3.98333 1.02959,-6.06399 0.21995,-0.53284 -4.786701,1.99271 -21.7094806,10.95118 -1.3096897,0.69332 -6.6400394,3.49041 -11.8452094,6.21581 -5.20518,2.72536 -9.82345,5.31468 -10.26282,5.75408 -1.63174,1.63173 -2.36593,4.02322 -2.36593,7.70659 0,3.58971 0.92935,6.26028 2.17855,6.26028 0.27998,0 5.35146,-2.69901 11.26996,-5.99781 z m -0.50972,-17.85263 c 13.9450993,-7.09393 33.74413,-17.2068 33.82449,-17.27673 0.0354,-0.0308 -0.16084,-0.52314 -0.43603,-1.09408 -0.89673,-1.86042 -1.18092,-3.37024 -1.19145,-6.32979 -0.007,-1.9704 0.13843,-3.45726 0.45032,-4.60352 0.25334,-0.93121 0.42442,-1.72934 0.38013,-1.77362 -0.0443,-0.0443 -6.8031507,3.13407 -15.01974067,7.06302 -8.21657963,3.92893 -15.41546933,7.36899 -15.99754933,7.64458 -7.17653,3.39768 -11.52237,5.59303 -12.18301,6.15445 -1.99805,1.69788 -3.20095,5.7295 -2.90152,9.72447 0.30178,4.02648 0.92882,5.82083 2.03409,5.82083 0.30988,0 5.27798,-2.39831 11.04027,-5.32961 z m -5.13358,-16.57437 c 2.76489,-1.30045 5.80099,-2.73045 6.74687,-3.17778 5.69616,-2.6938 25.5968293,-12.02001 28.7197,-13.45912 l 3.71658,-1.71271 -0.84989,-1.68864 c -1.02243,-2.0315 -1.3648,-4.49404 -0.92753,-6.67143 0.16357,-0.81444 0.26763,-1.50337 0.23125,-1.53098 -0.0692,-0.0525 -3.28004,1.35532 -25.46615,11.16603 -18.6073,8.22816 -17.69483,7.78462 -18.48863,8.98712 -1.15404,1.7482 -1.5485,3.21156 -1.55866,5.78212 -0.009,2.38114 0.45558,4.19108 1.20599,4.69426 0.56092,0.37613 1.52837,0.0297 6.67047,-2.38887 z M -137.06053,258.24276 c -24.52715,-8.60139 -52.97502,-18.39752 -53.42624,-18.39752 -0.30219,0 -1.21921,0.62833 -2.03782,1.3963 -2.54793,2.39029 -5.8696,3.62361 -9.75573,3.62228 -5.27808,-0.002 -10.35096,-2.39209 -11.77395,-5.54772 -0.28596,-0.63415 -0.71374,-1.1278 -1.05057,-1.21234 -0.48056,-0.12062 -16.59322,3.40641 -33.34528,7.2992 -11.50844,2.67431 -19.75376,4.49645 -20.34671,4.49645 -0.69986,0 -1.48141,-0.61893 -1.48141,-1.17315 0,-0.78687 2.8337,-3.63336 6.87916,-6.91021 1.23693,-1.00191 4.57297,-3.84952 7.41343,-6.32801 2.84046,-2.47849 6.82905,-5.94954 8.86354,-7.71344 2.03449,-1.76391 4.05626,-3.52221 4.49283,-3.90735 l 0.79375,-0.70025 -0.79375,0.16401 c -2.10973,0.43595 -8.96193,2.90254 -12.09813,4.35497 -4.9906,2.31124 -4.85429,2.26384 -5.34316,1.85811 -0.22995,-0.19084 -0.41809,-0.56214 -0.41809,-0.82513 0,-0.28159 2.41774,-2.7426 5.88164,-5.98687 3.2349,-3.0298 11.84156,-11.10466 19.1259,-17.94414 7.28435,-6.83948 14.7083,-13.80464 16.49767,-15.47813 3.58919,-3.35675 4.43516,-3.95065 8.50104,-5.96806 3.20453,-1.59003 6.78996,-2.83361 10.03401,-3.48024 3.3409,-0.66593 9.69899,-0.60593 12.86817,0.12144 5.17315,1.18731 9.62507,3.50982 12.90644,6.73313 l 1.85859,1.82571 1.47317,-0.82273 c 8.21962,-4.59045 13.9312,-6.3368 20.74619,-6.34327 10.27506,-0.01 18.88531,4.21738 30.14433,14.79914 2.23141,2.09719 2.23416,2.10419 1.63447,4.15141 -0.13801,0.47114 0.13066,0.77693 1.61027,1.83276 2.88617,2.05953 2.87085,1.82571 0.63681,9.72119 -7.66841,27.10156 -13.27284,46.73072 -13.51792,47.34567 -0.15949,0.40018 -0.38485,0.7276 -0.50082,0.7276 -0.11596,0 -0.36941,0.0535 -0.56321,0.11885 -0.1938,0.0654 -2.85268,-0.75798 -5.90862,-1.82966 z m -1.9329,-6.95429 c 0.21894,-0.25466 1.55742,-3.8563 2.9744,-8.00365 4.8688,-14.25044 8.31527,-24.2275 11.76964,-34.07148 1.90341,-5.42416 3.46074,-10.01485 3.46074,-10.20153 0,-0.3515 -4.29992,-4.25104 -7.54063,-6.8385 -12.32473,-9.84035 -24.56424,-11.34649 -38.07093,-4.68484 -5.17317,2.55146 -5.88772,3.12434 -8.00689,6.41947 -7.56149,11.75746 -21.20868,32.90427 -22.36112,34.64936 -0.56094,0.84939 -0.92542,1.50424 -0.80998,1.45521 0.11545,-0.049 1.27759,-0.70601 2.58254,-1.45997 9.63207,-5.56506 20.06197,-6.00216 30.41846,-1.27477 9.12721,4.16627 18.18015,12.98556 23.03376,22.43928 1.10733,2.15682 1.72139,2.53524 2.55001,1.57142 z m -6.58495,-4.31877 c -0.26289,-0.44717 -1.20785,-1.78662 -2.0999,-2.97656 -5.90348,-7.87483 -13.97397,-13.88866 -22.05829,-16.43701 -8.68259,-2.73694 -17.99492,-1.38312 -25.68284,3.73378 -2.55262,1.69896 -6.15872,4.58322 -5.96832,4.77362 0.0708,0.0708 0.88116,-0.16937 1.80086,-0.53366 8.36148,-3.31198 18.92998,-3.77322 28.67419,-1.25143 7.67469,1.9862 15.75839,6.0125 22.95497,11.43335 1.4823,1.11655 2.73159,2.03928 2.7762,2.05052 0.0446,0.0112 -0.13399,-0.34544 -0.39687,-0.79261 z m -58.00896,-14.73835 c -0.44195,-1.64125 -2.23287,-4.15479 -3.90172,-5.47602 -3.02488,-2.39481 -7.06027,-4.08363 -12.12147,-5.07287 -4.60468,-0.90001 -16.0927,-0.48828 -17.85798,0.64002 -0.36304,0.23205 -3.40049,2.81107 -6.74989,5.73118 -3.3494,2.92011 -6.56208,5.69624 -7.13928,6.16918 -1.2317,1.00921 -1.14947,1.05265 0.57052,0.30138 3.48472,-1.52206 8.4982,-2.95005 13.97871,-3.98156 2.79747,-0.52653 4.04017,-0.59888 10.45104,-0.60844 4.92789,-0.007 7.91645,0.10269 9.26042,0.34097 5.40383,0.95809 9.91046,2.45482 12.38802,4.11425 l 1.23802,0.82921 0.0806,-0.97824 c 0.0443,-0.53802 -0.0443,-1.4421 -0.19698,-2.00906 z m 8.06977,-9.48387 c 2.14983,-3.32931 5.82811,-9.02984 8.17396,-12.66787 2.34584,-3.63802 5.62998,-8.72553 7.29808,-11.30558 1.6681,-2.58005 3.60242,-5.59128 4.29847,-6.69162 l 1.26556,-2.00063 -0.9501,-1.15947 c -1.90341,-2.32286 -5.94213,-4.83803 -9.7831,-6.09257 -8.41277,-2.74777 -17.67399,-1.48076 -26.72219,3.65583 -2.38142,1.3519 -2.97709,1.88006 -17.33093,15.36665 -0.94589,0.88873 -3.50573,3.28715 -5.68855,5.32981 -5.10837,4.78038 -18.17598,17.05533 -18.52083,17.3974 -0.17522,0.1738 -0.0858,0.19366 0.26458,0.0588 13.23035,-5.09115 23.93359,-6.6738 33.86667,-5.00774 8.3124,1.39423 14.68501,5.27373 17.14447,10.43717 l 0.8472,1.77861 0.96396,-1.52276 c 0.53018,-0.83752 2.72291,-4.24674 4.87275,-7.57604 z m 332.03622,0.41249 c -4.94771,-0.55928 -15.6038,-1.73846 -23.68021,-2.62039 -8.07642,-0.88195 -15.190396,-1.67498 -15.808856,-1.76231 -0.90067,-0.12718 -1.12448,-0.0785 -1.12448,0.24462 0,0.64109 -1.490852,1.72397 -2.989108,2.17113 -2.942352,0.87816 -9.147413,0.32672 -11.808566,-1.04942 -1.207982,-0.62467 -2.560585,-1.89754 -2.908221,-2.73676 l -0.308583,-0.74501 -5.34641,-0.58776 c -32.677683,-3.59247 -45.014831,-5.06824 -45.374271,-5.42767 -0.58102,-0.58102 -0.20833,-1.63032 0.71485,-2.01273 0.42797,-0.17726 0.84217,-0.48921 0.92043,-0.69321 0.0783,-0.20401 3.28002,-4.68772 7.114915,-9.9638 10.594552,-14.576 24.944441,-34.34032 29.405661,-40.50088 l 3.988673,-5.508 3.175,-1.56264 c 6.411225,-3.1554 11.611505,-4.44553 18.785418,-4.66042 7.224212,-0.2164 12.150278,0.72328 17.469968,3.33251 2.88409,1.41461 5.69899,3.71926 6.61088,5.41248 0.28339,0.52625 0.57708,0.92371 0.65262,0.88324 4.69273,-2.51397 10.20376,-4.44487 15.35091,-5.37849 3.52621,-0.63961 10.44004,-0.64905 13.5927,-0.0186 7.07533,1.41495 12.28672,4.05252 17.26324,8.73722 2.33625,2.19923 2.44518,2.26557 4.61992,2.81358 4.26365,1.07438 4.19888,1.04957 4.35409,1.66798 0.09,0.35845 -0.31761,1.82977 -1.04177,3.76083 -1.63891,4.37024 -15.0988,40.42911 -18.41807,49.34183 -1.49037,4.00182 -2.8284,7.42486 -2.97339,7.60677 -0.39516,0.49577 -2.285,0.38086 -12.23734,-0.74413 z m 6.03446,-5.73817 c 0.24775,-0.69122 0.44987,-1.46346 0.44913,-1.71609 -0.003,-0.76863 -5.20007,-5.92805 -7.52412,-7.46844 -6.03139,-3.99764 -11.7434,-5.77439 -18.53864,-5.76656 -7.18034,0.008 -14.04898,2.19648 -21.166676,6.74325 -1.455204,0.92959 -3.062548,1.94912 -3.571871,2.26564 -1.153371,0.71674 -0.866907,0.725 1.322917,0.0381 5.011654,-1.57199 10.92237,-2.40012 17.19792,-2.40953 6.68814,-0.01 11.74324,0.74248 17.42655,2.59411 3.37817,1.10062 8.94379,3.78368 11.67762,5.62953 1.09141,0.7369 2.05015,1.34138 2.13056,1.34328 0.0804,0.002 0.34885,-0.56208 0.59661,-1.25331 z m 5.91395,-16.07343 c 2.26251,-6.11188 4.68757,-12.66032 5.38906,-14.55209 0.70149,-1.89177 3.01088,-8.12143 5.132,-13.84368 2.12111,-5.72225 3.85656,-10.55826 3.85656,-10.74667 0,-0.49783 -3.86278,-4.11016 -5.80683,-5.43035 -2.22933,-1.51391 -6.5658,-3.54203 -9.0196,-4.21837 -9.28416,-2.55899 -18.84327,-1.42907 -29.09527,3.43918 l -2.79188,1.32575 -13.71227,27.42606 c -7.541742,15.08433 -13.551118,27.30011 -13.354135,27.14618 4.477094,-3.49892 6.829479,-5.05291 10.513399,-6.94521 3.231896,-1.6601 8.039986,-3.28309 11.388736,-3.8443 3.19056,-0.53469 8.78007,-0.53895 11.82497,-0.009 7.25522,1.26271 14.18302,5.00711 19.07572,10.31018 1.89795,2.05718 2.07104,2.18228 2.27025,1.64089 0.11861,-0.32234 2.06679,-5.5867 4.32929,-11.69857 z m -64.838468,7.69039 c -5.012532,-5.86723 -13.310315,-9.85169 -22.38391,-10.74839 -6.815694,-0.67357 -14.520175,0.87305 -21.298959,4.27561 -2.537699,1.27378 -6.053694,3.40022 -5.891054,3.56286 0.04281,0.0428 0.909558,-0.15489 1.926113,-0.43934 2.860173,-0.80031 8.375783,-1.76013 12.133766,-2.1115 4.226534,-0.39518 11.895879,-0.19413 16.040551,0.42049 6.228556,0.92365 13.432896,3.09054 18.25625,5.49103 1.236928,0.61559 2.295658,1.0924 2.352755,1.05956 0.0571,-0.0328 -0.453893,-0.71247 -1.135512,-1.51032 z M 100.93805,183.7237 c 7.41835,-14.85956 13.48789,-27.11104 13.48789,-27.22552 0,-0.51275 -2.19713,-3.0572 -3.48041,-4.03059 -2.85837,-2.16814 -7.89265,-4.01124 -12.887776,-4.71835 -3.484672,-0.4933 -10.856652,-0.16541 -14.455779,0.64297 -3.60979,0.81076 -6.879829,1.95519 -10.318751,3.61129 l -2.645833,1.27416 -11.773959,16.21965 c -6.475678,8.9208 -14.470857,19.93128 -17.767063,24.46773 -3.296206,4.53646 -6.213211,8.58402 -6.482212,8.99459 l -0.489109,0.74649 1.190545,-0.73918 c 3.907605,-2.4261 10.222972,-4.93703 14.698029,-5.8438 4.617984,-0.93572 11.398171,-0.94008 15.839176,-0.0102 8.546412,1.78949 16.363712,6.61558 20.794028,12.83738 0.309668,0.43491 0.617114,0.79075 0.683207,0.79075 0.06607,0 6.189689,-12.15782 13.608017,-27.01738 z M -88.289655,172.91734 c -2.15242,-0.39425 -4.00701,-1.03607 -5.64379,-1.95315 l -1.5875,-0.88947 -0.0672,-34.06418 -0.0671,-34.06418 4.7449,-12.608371 c 2.6097,-6.9346 6.54856,-17.370875 8.75303,-23.191715 2.20446,-5.82083 4.31533,-11.41677 4.69082,-12.43541 1.07968,-2.92899 1.25558,-3.01842 3.12701,-1.58992 2.4126,1.84157 6.14788,2.1985 9.79877,0.93631 2.62408,-0.9072 2.95173,-1.41243 5.36902,-8.279038 1.16603,-3.31223 2.19281,-6.13996 2.28174,-6.28385 0.31422,-0.50842 1.15226,-0.25024 2.28824,0.70494 1.62477,1.36618 3.53056,2.17046 5.99379,2.52948 1.81714,0.26484 2.42816,0.24457 4.19746,-0.13929 3.08814,-0.66997 6.43639,-2.49239 6.43639,-3.50326 0,-0.20022 0.23029,-0.4873 0.51178,-0.63794 0.66186,-0.35422 0.69723,-0.35 1.18912,0.14188 0.34319,0.34321 0.41576,1.15204 0.41576,4.6341 v 4.218328 l 0.8599,0.53085 c 2.27793,1.40625 6.53314,1.83729 9.49735,0.96205 0.82153,-0.24258 2.18763,-0.90752 3.03578,-1.47765 2.74606,-1.845928 2.48197,-5.211668 2.48197,31.63368 v 32.167276 l -7.54964,28.34686 c -4.15229,15.59077 -7.65657,28.58499 -7.7873,28.87603 -0.14195,0.31606 -0.24487,-14.7338 -0.25556,-37.37097 l -0.018,-37.900131 6.35,-21.329275 c 3.4925,-11.7311 6.35,-21.42893 6.35,-21.55072 0,-0.1218 -0.68461,0.03 -1.52135,0.33739 -1.22688,0.45067 -2.13593,0.56041 -4.69636,0.56696 -3.13637,0.008 -3.67982,-0.0982 -6.52563,-1.27583 -0.37079,-0.15344 -0.63077,0.41531 -1.64896,3.60771 -0.66482,2.08442 -3.87887,12.12269 -7.14232,22.30726 -4.39759,13.724015 -5.86931,18.637425 -5.68537,18.981115 0.87499,1.63493 7.26628,2.6077 10.90544,1.65982 0.83804,-0.21828 1.57781,-0.39687 1.64399,-0.39687 0.0662,0 0.0901,17.230571 0.0532,38.290161 l -0.067,38.29016 -1.32292,0.52109 c -2.52034,0.99275 -9.42793,0.67372 -11.84011,-0.54684 l -0.7276,-0.36816 V 125.77232 80.240079 l 6.10079,-19.048015 c 3.35545,-10.47641 6.06391,-19.084918 6.01879,-19.130018 -0.0451,-0.0451 -0.58044,0.14651 -1.18967,0.4258 -3.70292,1.69756 -9.20155,1.66985 -12.59917,-0.0635 -0.57174,-0.29168 -1.12977,-0.43139 -1.24006,-0.31046 -0.19148,0.20996 -1.76067,4.608888 -6.21328,17.417788 -1.11288,3.20146 -3.33134,9.53859 -4.9299,14.08251 -3.20995,9.124315 -3.20435,9.083115 -1.30323,9.595045 4.61124,1.24167 9.60298,1.19239 12.77604,-0.12614 0.4399,-0.18279 0.46302,2.0207 0.46302,44.117671 v 44.31007 l -1.14651,0.43786 c -4.40968,1.68407 -11.09032,1.56737 -15.98748,-0.27928 l -1.12669,-0.42486 0.0684,-45.66998 0.0684,-45.669971 1.77258,-4.894795 c 0.97492,-2.69214 2.89805,-8.04995 4.27363,-11.90625 1.37558,-3.85631 2.63508,-7.3554 2.79889,-7.77576 0.1638,-0.42037 0.25632,-0.80581 0.20558,-0.85655 -0.0507,-0.0507 -0.79821,0.15774 -1.66105,0.46328 -2.2535,0.79799 -5.50847,0.95453 -7.67172,0.36897 -0.949,-0.25688 -1.79261,-0.3999 -1.87469,-0.31782 -0.0821,0.0821 -2.28412,5.90101 -4.89342,12.93095 -2.60929,7.02995 -6.41938,17.276265 -8.46686,22.769585 -2.66036,7.13768 -3.67614,10.173281 -3.5596,10.637611 0.18724,0.74603 0.84271,0.98227 4.52457,1.63075 3.34997,0.59001 8.97988,0.40526 10.91407,-0.35816 l 1.38906,-0.54826 v 34.62379 34.62379 l -1.78594,0.51779 c -0.98226,0.28479 -2.44078,0.65722 -3.24114,0.82764 -1.86566,0.39723 -7.69898,0.57036 -9.30517,0.27616 z M -221.14576,160.30203 c -0.10151,-0.10151 -0.18456,-19.33378 -0.18456,-42.73839 V 75.009824 h 3.1758 3.1758 l -0.0669,42.664066 -0.067,42.66406 -2.92428,0.0743 c -1.60836,0.0409 -3.00735,-0.009 -3.10886,-0.11024 z m -26.44446,-15.38242 -22.68802,-13.12174 V 89.626119 c 0,-35.019575 0.0599,-42.157255 0.35294,-42.086215 0.19412,0.047 10.55256,6.19653 23.01875,13.66552 l 22.66581,13.57998 V 116.4372 c 0,33.15775 -0.0674,41.64693 -0.33073,41.62797 -0.1819,-0.0131 -10.54034,-5.9286 -23.01875,-13.14556 z m 35.52031,-28.41921 V 74.855184 l 1.65365,-0.95496 c 25.39964,-14.66806 34.82104,-20.11191 38.89249,-22.4728 2.72782,-1.58176 5.02015,-2.87594 5.09405,-2.87594 0.0739,0 0.10424,18.77232 0.0674,41.716275 l -0.067,41.716261 -5.82083,3.35001 c -3.20146,1.8425 -13.28167,7.65636 -22.40047,12.91968 -9.11879,5.26332 -16.76856,9.64217 -16.99948,9.73078 -0.38231,0.14671 -0.41985,-3.56192 -0.41985,-41.48409 z m 313.92814,10.07053 c -4.074586,-1.15682 -12.349432,-3.47607 -18.388547,-5.15391 -13.922164,-3.86795 -33.086174,-9.26054 -39.379051,-11.08093 -3.847491,-1.113 -5.0156,-1.55959 -5.647055,-2.15903 -2.339314,-2.22066 -3.448976,-7.61318 -2.458694,-11.948341 0.396082,-1.73395 0.838333,-2.64096 2.306479,-4.73021 l 0.726864,-1.03441 -1.060953,-2.10474 c -2.335133,-4.63247 -1.813269,-9.959995 1.253834,-12.799925 0.695087,-0.6436 13.678218,-9.4131 28.851438,-19.48779 21.102638,-14.011708 27.881949,-18.387538 28.839589,-18.615068 1.24049,-0.29473 4.531306,-0.0244 27.181096,2.23294 2.18281,0.21754 10.75532,1.05318 19.05,1.85697 16.14942,1.56495 15.7427,1.4889 15.7427,2.94337 0,0.43199 -0.48175,0.95436 -1.72244,1.867658 -2.79722,2.05914 -3.73348,4.61976 -3.50398,9.58334 0.11504,2.48815 0.66929,5.04069 1.22333,5.63404 0.0981,0.10511 3.56907,0.62549 7.71316,1.15641 4.38176,0.56136 7.78383,1.12056 8.13004,1.33634 0.89185,0.55587 0.72535,1.35557 -0.57076,2.74122 -2.97125,3.17651 -3.87549,8.05906 -2.17882,11.76504 0.577,1.260325 0.75451,1.435865 1.5276,1.510665 1.04336,0.10095 1.73212,1.08745 1.45732,2.08734 -0.11022,0.40114 -1.33694,1.53912 -3.26014,3.02437 -1.6959,1.30969 -6.18882,4.85367 -9.98426,7.8755 -3.79545,3.02184 -8.36758,6.65325 -10.16027,8.069801 -1.79271,1.41654 -4.82895,3.82569 -6.74726,5.35366 -4.34459,3.46058 -11.58431,9.2066 -20.02351,15.89232 -3.56526,2.82447 -7.00849,5.40479 -7.65162,5.73404 -1.84541,0.94477 -3.07049,0.77615 -11.26609,-1.55067 z m 7.80521,-1.68158 c 0,-0.0697 -0.32406,-1.05196 -0.72014,-2.18281 -0.66392,-1.89552 -0.71911,-2.36603 -0.70663,-6.02484 0.0114,-3.35903 0.10465,-4.25329 0.60648,-5.82083 0.96502,-3.01433 1.14938,-2.75789 -2.61929,-3.64352 -9.336016,-2.19397 -33.619504,-7.976291 -46.886295,-11.164461 -14.067632,-3.38062 -15.050109,-3.58156 -15.742709,-3.21985 -1.011661,0.52834 -2.018559,1.65853 -2.742962,3.07887 -1.202822,2.35837 -0.928978,7.765421 0.481515,9.507311 0.371766,0.45912 3.785368,1.50719 17.001253,5.21989 9.094841,2.55499 24.275125,6.82803 33.73398,9.49565 17.779288,5.01419 17.594798,4.96433 17.594798,4.75459 z m 5.95313,-2.9367 c 9.42628,-7.49462 26.12088,-20.71399 32.14017,-25.449731 0.50564,-0.39781 4.79189,-3.80126 9.525,-7.56322 4.7331,-3.76195 8.83925,-7.00552 9.12474,-7.20793 0.51117,-0.36241 0.50861,-0.38942 -0.16801,-1.76904 -0.37791,-0.77055 -0.83466,-2.110895 -1.015,-2.978525 -0.34525,-1.66119 -0.21256,-4.81396 0.25429,-6.04186 0.14534,-0.38226 0.20516,-0.69502 0.13296,-0.69502 -0.0722,0 -1.11107,0.75333 -2.30857,1.67407 -5.44717,4.18825 -38.67282,29.566816 -43.07805,32.904076 -2.70462,2.04891 -5.28426,3.80586 -5.73252,3.90431 -0.44825,0.0985 -1.22192,0.10268 -1.71921,0.009 -0.87458,-0.16408 -0.91879,-0.1314 -1.35014,0.99807 -1.31429,3.44143 -1.56514,8.80216 -0.56639,12.10384 0.45561,1.50617 1.05886,2.64949 1.3934,2.64088 0.10578,-0.003 1.62108,-1.14091 3.36733,-2.52931 z m 0.67487,-31.097901 c 8.05855,-6.02257 19.67399,-14.703975 25.81206,-19.291995 l 11.16014,-8.34185 -0.38195,-0.72898 c -1.20478,-2.29942 -1.82517,-8.27649 -1.15782,-11.15488 0.13402,-0.578 0.22045,-1.07401 0.19212,-1.10225 -0.0283,-0.0282 -1.24214,0.8096 -2.69735,1.86186 -1.45521,1.05225 -5.4438,3.93649 -8.86353,6.40942 -3.41974,2.47293 -10.32537,7.45642 -15.34584,11.07441 -22.38118,16.128955 -24.14517,17.434665 -24.63227,18.232935 -1.108916,1.81734 -1.429196,3.33577 -1.429196,6.77557 0,2.49725 0.11851,3.66371 0.48387,4.7625 0.650056,1.954971 1.171386,2.724431 1.744356,2.574601 0.25493,-0.0667 7.05683,-5.048771 15.11541,-11.071341 z M 97.885984,101.26972 c -0.7116,-1.712451 -0.98999,-3.235461 -1.10024,-6.019271 -0.10301,-2.60008 -0.0314,-3.53432 0.39555,-5.15937 0.28673,-1.09141 0.50382,-1.99736 0.48247,-2.01323 -0.0389,-0.0289 -5.95829,-1.22976 -36.419082,-7.3885 -8.949532,-1.809475 -16.552916,-3.356925 -16.896398,-3.438775 -0.488236,-0.11636 -0.846852,0.0849 -1.643539,0.92241 -1.18999,1.250945 -1.832981,3.111335 -1.832981,5.303505 0,1.5793 0.631217,4.15396 1.147181,4.67923 0.169412,0.17248 11.499903,2.98992 25.178862,6.26099 13.678959,3.27106 26.06146,6.242281 27.516668,6.602691 3.325439,0.82363 3.412599,0.83051 3.171509,0.25032 z m -334.649794,-45.265246 -13.9764,-13.978268 1.9388,-0.57384 c 3.35631,-0.99338 9.90274,-2.43604 11.33684,-2.49835 l 1.37706,-0.0598 6.44223,14.948958 c 3.54323,8.22193 6.56339,15.21685 6.71147,15.54427 0.14807,0.32742 0.24159,0.59531 0.20781,0.59531 -0.0338,0 -6.35079,-6.29022 -14.03781,-13.97826 z m 23.17762,13.71368 c 0.12449,-0.35254 10.67043,-24.842828 12.50426,-29.038018 0.45971,-1.05166 0.87883,-1.65328 1.15129,-1.65264 1.10347,0.003 13.3125,3.13757 13.69025,3.51531 0.0432,0.0432 -6.12346,6.264628 -13.7037,13.825388 -7.58024,7.56076 -13.71919,13.56824 -13.6421,13.34996 z m 4.69128,-0.11028 c 0,-0.22717 25.75035,-25.702998 26.0457,-25.768018 0.40168,-0.0884 4.68288,1.61331 8.47991,3.370698 l 2.37872,1.10095 -0.79122,0.49235 c -0.43518,0.27079 -6.98248,4.05811 -14.54956,8.41627 -7.56709,4.35816 -15.51451,8.94238 -17.66094,10.18714 -2.14644,1.24477 -3.90261,2.23504 -3.90261,2.20061 z m -7.87342,-16.18158 0.0682,-16.119598 2.24896,0.0801 c 2.93018,0.10439 10.35906,0.84146 10.75669,1.06725 0.2107,0.11963 -1.79408,5.06018 -6.29429,15.511528 -3.6319,8.43479 -6.65844,15.39096 -6.72562,15.45815 -0.0672,0.0672 -0.0915,-7.13167 -0.054,-15.99745 z m -29.26537,4.9461 c -9.87607,-5.92666 -17.9532,-10.88278 -17.94917,-11.01361 0.0127,-0.41162 8.85749,-4.092378 9.84522,-4.097068 0.21884,-10e-4 6.23104,5.832168 13.36045,12.962688 7.12941,7.13052 12.90348,12.95539 12.83128,12.94416 -0.0722,-0.0112 -8.2117,-4.86951 -18.08778,-10.79617 z m 19.50386,-4.66429 c -6.22638,-14.482038 -6.61809,-15.486128 -6.08542,-15.599408 0.95453,-0.203 5.93212,-0.63297 9.499,-0.82054 l 3.37344,-0.1774 v 16.039118 c 0,8.82151 -0.0298,16.03854 -0.0662,16.03784 -0.0364,-8e-4 -3.06077,-6.96653 -6.72087,-15.47961 z"
       id="path7996"
       clip-path="url(#clipPath8125)"
       transform="translate(-0.58550523,116.09071)" /></g><text
     xml:space="preserve"
     style="font-style:italic;font-variant:normal;font-weight:bold;font-stretch:normal;font-size:31.702px;font-family:sans-serif;-inkscape-font-specification:'sans-serif, Bold Italic';font-variant-ligatures:normal;font-variant-caps:normal;font-variant-numeric:normal;font-variant-east-asian:normal;fill:url(#linearGradient7175);fill-opacity:1;stroke-width:2.52742;stroke-dasharray:none;paint-order:markers fill stroke;image-rendering:auto"
     x="92.543625"
     y="35.672764"
     id="text7007"
     transform="matrix(0.81562515,0.27259447,-0.90036845,0.92513643,0,0)"><tspan
       sodipodi:role="line"
       id="tspan7167"
       style="font-style:italic;font-variant:normal;font-weight:bold;font-stretch:normal;font-size:31.702px;font-family:sans-serif;-inkscape-font-specification:'sans-serif, Bold Italic';font-variant-ligatures:normal;font-variant-caps:normal;font-variant-numeric:normal;font-variant-east-asian:normal;fill:url(#linearGradient7175);fill-opacity:1;stroke-width:2.52742"
       x="92.543625"
       y="35.672764">AD</tspan></text></svg>
